<svg id="svg" version="1.1" width="400" height="400" viewBox="0 0 400 400" xmlns="http://www.w3.org/2000/svg" xmlns:xlink="http://www.w3.org/1999/xlink" ><g id="svgg"><path id="path0" d="M87.003 76.400 L 35.800 127.599 69.200 127.639 C 87.570 127.662,103.050 127.805,103.600 127.957 L 104.600 128.234 104.894 135.417 C 105.068 139.653,105.437 143.513,105.794 144.826 C 106.127 146.051,106.399 147.401,106.398 147.826 C 106.396 148.715,108.213 154.786,109.042 156.660 C 109.349 157.354,109.600 158.040,109.600 158.186 C 109.600 158.332,110.050 159.435,110.600 160.637 C 111.150 161.840,111.600 162.894,111.600 162.980 C 111.600 163.066,112.513 164.726,113.628 166.668 C 126.668 189.379,149.210 201.201,178.600 200.743 C 186.657 200.617,187.810 200.772,188.210 202.032 C 188.478 202.875,187.551 207.063,186.584 209.377 C 185.489 211.996,185.775 223.155,187.039 227.171 C 188.102 230.549,191.325 236.562,194.073 240.292 C 198.917 246.870,199.050 246.805,176.800 248.785 C 174.710 248.971,171.290 249.417,169.200 249.778 C 167.110 250.138,163.330 250.788,160.800 251.222 C 158.270 251.657,154.670 252.382,152.800 252.834 C 147.234 254.180,144.019 255.071,136.800 257.271 C 124.281 261.087,110.211 269.327,100.944 278.271 C 97.888 281.221,96.226 283.224,91.703 289.415 C 91.128 290.202,89.493 293.753,87.288 299.000 C 80.503 315.149,82.520 337.099,91.864 348.800 C 92.127 349.130,93.415 350.766,94.724 352.435 C 104.400 364.764,126.557 376.258,146.400 379.243 C 147.830 379.458,150.312 379.913,151.916 380.255 C 159.724 381.918,192.443 382.009,199.400 380.387 C 200.500 380.131,203.020 379.681,205.000 379.387 C 224.601 376.482,248.063 366.323,261.775 354.806 C 276.041 342.823,286.275 325.551,288.445 309.800 C 289.854 299.565,288.792 285.515,286.172 279.740 C 285.857 279.046,285.600 278.284,285.600 278.046 C 285.600 277.360,282.006 270.013,280.536 267.692 C 279.801 266.533,279.200 265.475,279.200 265.341 C 279.200 263.646,257.142 242.085,249.768 236.572 C 248.905 235.927,247.981 235.220,247.714 235.000 C 246.818 234.263,246.223 233.802,241.200 229.949 C 236.677 226.480,231.003 221.153,228.802 218.311 C 221.688 209.122,226.642 195.963,241.800 183.786 C 244.220 181.841,246.290 180.149,246.400 180.025 C 246.510 179.901,247.590 178.968,248.800 177.950 C 259.498 168.957,271.600 151.633,271.600 145.313 C 271.600 144.987,271.870 144.152,272.200 143.456 C 273.331 141.073,274.149 133.432,274.153 125.200 C 274.159 115.009,273.450 110.323,270.780 102.895 C 269.637 99.716,269.151 100.296,292.839 76.600 C 318.644 50.786,316.000 52.284,316.000 63.476 C 316.000 70.978,315.690 72.400,314.053 72.400 C 313.480 72.400,311.485 75.650,310.615 78.000 C 309.349 81.417,309.333 183.594,310.597 187.400 C 313.248 195.383,323.115 199.010,328.509 193.985 C 328.972 193.553,329.587 193.200,329.875 193.200 C 330.164 193.200,330.400 193.034,330.400 192.831 C 330.400 192.628,330.817 191.953,331.328 191.331 C 331.838 190.709,332.648 189.017,333.128 187.572 L 334.000 184.944 334.000 132.800 L 334.000 80.656 333.118 78.047 C 332.634 76.611,331.983 75.134,331.673 74.764 C 329.865 72.606,328.705 71.567,326.800 70.398 C 326.286 70.082,326.200 68.109,326.200 56.618 L 326.200 43.207 334.915 34.485 C 339.708 29.688,343.503 25.637,343.348 25.482 C 343.193 25.327,296.973 25.200,240.637 25.200 L 138.207 25.200 87.003 76.400 M192.113 66.161 C 202.554 68.944,212.706 77.359,220.874 90.000 C 224.276 95.265,225.150 96.845,226.955 101.000 C 228.006 103.420,229.031 105.760,229.233 106.200 C 230.555 109.087,233.440 118.854,234.431 123.800 C 234.652 124.900,235.096 127.060,235.418 128.600 C 237.840 140.161,236.967 156.769,233.473 165.600 C 226.131 184.159,201.464 194.259,182.200 186.595 C 169.617 181.588,156.866 167.387,150.600 151.400 C 149.997 149.860,149.261 148.060,148.965 147.400 C 148.669 146.740,147.968 144.670,147.406 142.800 C 146.844 140.930,146.117 138.563,145.790 137.540 C 145.463 136.518,145.091 134.808,144.962 133.740 C 144.833 132.673,144.482 130.990,144.182 130.000 C 143.881 129.010,143.452 126.490,143.227 124.400 C 143.002 122.310,142.634 119.630,142.409 118.445 C 141.893 115.727,141.878 107.555,142.383 104.888 C 142.594 103.776,142.952 101.389,143.178 99.584 C 143.631 95.972,144.477 92.712,145.641 90.089 C 146.058 89.148,146.400 88.181,146.400 87.939 C 146.400 87.697,147.345 85.947,148.500 84.049 C 157.567 69.157,175.599 61.760,192.113 66.161 M212.227 258.997 C 214.248 259.608,216.130 260.912,230.200 271.449 C 239.877 278.695,245.880 284.004,249.361 288.393 C 251.663 291.295,253.600 293.962,253.600 294.231 C 253.600 294.399,253.851 294.821,254.159 295.169 C 255.044 296.169,257.903 301.847,258.198 303.189 C 258.345 303.860,258.723 304.924,259.038 305.556 C 260.637 308.760,260.653 324.302,259.062 328.114 C 258.767 328.821,258.402 330.059,258.251 330.865 C 257.134 336.830,248.279 347.985,240.800 352.850 C 237.591 354.937,236.252 355.640,231.700 357.631 C 230.655 358.088,229.350 358.701,228.800 358.994 C 228.250 359.287,227.080 359.661,226.200 359.826 C 225.320 359.991,224.060 360.344,223.400 360.611 C 222.740 360.878,221.224 361.220,220.031 361.371 C 218.838 361.522,217.526 361.826,217.115 362.045 C 213.406 364.030,184.874 364.248,175.800 362.360 C 174.700 362.131,172.586 361.709,171.103 361.422 C 169.619 361.134,167.909 360.707,167.303 360.472 C 166.696 360.237,165.168 359.843,163.907 359.596 C 162.646 359.348,161.523 358.999,161.411 358.818 C 161.300 358.638,160.541 358.365,159.725 358.212 C 158.909 358.059,157.877 357.679,157.431 357.367 C 156.986 357.055,156.335 356.800,155.984 356.800 C 152.969 356.800,140.149 348.792,134.260 343.232 C 131.309 340.445,124.800 331.173,124.800 329.757 C 124.800 329.589,124.463 328.721,124.052 327.826 C 119.039 316.925,119.800 299.639,125.707 290.214 C 128.827 285.236,130.296 283.325,133.384 280.227 C 139.289 274.304,146.981 269.495,154.600 266.964 C 155.480 266.671,157.460 265.958,159.000 265.379 C 163.391 263.727,169.503 262.185,176.400 260.991 C 178.270 260.667,180.703 260.218,181.806 259.993 C 182.909 259.769,186.669 259.413,190.162 259.202 C 193.656 258.992,196.608 258.725,196.724 258.610 C 197.242 258.091,210.312 258.417,212.227 258.997 " stroke="none" fill="#fafbfc" fill-rule="evenodd"></path><path id="path1" d="M0.000 200.000 L 0.000 400.000 200.000 400.000 L 400.000 400.000 400.000 200.000 L 400.000 0.000 200.000 0.000 L 0.000 0.000 0.000 200.000 M345.588 25.177 C 345.952 25.858,344.851 27.106,336.602 35.360 L 327.200 44.767 327.200 56.797 L 327.200 68.827 328.600 69.653 C 329.370 70.107,330.000 70.641,330.000 70.840 C 330.000 71.038,330.236 71.200,330.525 71.200 C 331.021 71.200,331.637 71.910,333.996 75.200 L 335.000 76.600 335.000 132.800 L 335.000 189.000 333.996 190.400 C 331.637 193.690,331.021 194.400,330.525 194.400 C 330.236 194.400,330.000 194.670,330.000 195.000 C 330.000 195.330,329.754 195.600,329.454 195.600 C 329.154 195.600,328.399 196.000,327.778 196.489 C 325.820 198.029,316.000 197.929,316.000 196.369 C 316.000 196.166,315.730 196.000,315.400 196.000 C 315.070 196.000,314.471 195.671,314.069 195.269 C 313.668 194.868,313.038 194.423,312.669 194.282 C 312.301 194.141,312.000 193.793,312.000 193.509 C 312.000 193.225,311.640 192.768,311.200 192.493 C 310.760 192.218,310.396 191.770,310.391 191.497 C 310.386 191.223,310.030 190.550,309.600 190.000 C 308.370 188.428,308.370 77.172,309.600 75.600 C 310.030 75.050,310.386 74.381,310.391 74.114 C 310.396 73.847,310.760 73.435,311.200 73.200 C 311.640 72.965,312.000 72.508,312.000 72.186 C 312.000 71.864,312.154 71.600,312.342 71.600 C 314.260 71.600,314.800 69.800,314.800 63.405 L 314.800 57.173 293.600 78.370 C 272.497 99.470,271.835 100.221,272.984 101.737 C 273.291 102.142,273.665 103.204,273.816 104.096 C 273.967 104.988,274.327 106.285,274.616 106.976 C 274.905 107.668,275.262 109.397,275.410 110.817 C 275.558 112.238,275.931 114.909,276.239 116.752 C 276.888 120.630,276.964 129.024,276.385 132.800 C 276.166 134.230,275.804 136.930,275.581 138.800 C 275.192 142.057,274.175 145.911,272.967 148.714 C 272.655 149.436,272.399 150.336,272.397 150.714 C 272.395 151.330,269.472 157.479,267.987 159.993 C 264.850 165.301,256.589 174.412,248.876 181.070 C 247.647 182.131,246.357 183.270,246.010 183.600 C 245.664 183.930,243.945 185.400,242.190 186.867 C 237.758 190.572,234.210 194.382,230.888 199.000 C 228.379 202.488,227.777 210.348,229.703 214.471 C 230.749 216.708,236.143 222.543,240.363 226.000 C 241.302 226.770,242.280 227.583,242.536 227.806 C 242.791 228.029,243.810 228.826,244.800 229.578 C 245.790 230.329,246.870 231.234,247.200 231.590 C 247.935 232.381,251.156 234.930,252.057 235.433 C 252.655 235.767,254.571 237.316,256.964 239.400 C 257.469 239.840,259.469 241.550,261.407 243.200 C 268.180 248.964,278.800 260.173,278.800 261.557 C 278.800 261.800,278.953 262.000,279.140 262.000 C 279.503 262.000,282.000 265.828,282.000 266.384 C 282.000 266.566,282.247 266.809,282.549 266.925 C 282.850 267.041,283.224 267.643,283.380 268.264 C 283.536 268.884,283.797 269.484,283.961 269.596 C 284.124 269.708,284.844 271.060,285.559 272.600 C 286.274 274.140,287.116 275.878,287.430 276.462 C 287.743 277.046,288.006 277.856,288.014 278.262 C 288.021 278.668,288.375 279.720,288.800 280.600 C 289.225 281.480,289.579 282.974,289.586 283.920 C 289.594 284.866,289.915 286.216,290.300 286.920 C 290.920 288.053,291.000 289.488,291.000 299.400 C 291.000 309.312,290.920 310.747,290.300 311.880 C 289.915 312.584,289.596 313.844,289.591 314.680 C 289.586 315.516,289.226 316.985,288.791 317.944 C 288.356 318.903,288.000 320.035,288.000 320.460 C 288.000 320.884,287.640 321.938,287.200 322.800 C 286.760 323.662,286.400 324.722,286.400 325.155 C 286.400 325.589,286.157 326.186,285.860 326.482 C 285.564 326.779,285.100 327.692,284.829 328.511 C 284.559 329.330,284.186 330.000,284.001 330.000 C 283.815 330.000,283.545 330.538,283.401 331.195 C 283.257 331.853,283.004 332.474,282.839 332.576 C 282.674 332.678,281.941 333.940,281.210 335.381 C 280.479 336.821,279.730 338.000,279.546 338.000 C 279.361 338.000,278.934 338.585,278.595 339.300 C 277.820 340.934,277.144 342.064,276.491 342.815 C 276.211 343.137,275.060 344.570,273.934 346.000 C 270.697 350.110,261.693 358.400,260.466 358.400 C 260.257 358.400,259.992 358.643,259.878 358.940 C 259.566 359.755,250.855 365.433,246.676 367.546 C 244.654 368.568,242.555 369.719,242.011 370.102 C 241.467 370.486,240.775 370.800,240.474 370.800 C 240.173 370.800,239.469 371.160,238.909 371.600 C 238.350 372.040,237.601 372.400,237.246 372.399 C 236.891 372.398,235.790 372.784,234.800 373.257 C 230.727 375.201,228.170 376.169,224.973 376.980 C 223.858 377.263,222.598 377.677,222.173 377.901 C 221.748 378.124,220.608 378.438,219.641 378.599 C 218.673 378.759,217.323 379.118,216.641 379.396 C 215.958 379.674,214.500 380.023,213.400 380.172 C 212.300 380.321,210.860 380.604,210.200 380.800 C 202.337 383.139,167.160 384.287,154.345 382.623 C 145.247 381.441,136.597 379.850,135.801 379.212 C 135.580 379.035,134.590 378.763,133.600 378.607 C 132.610 378.451,131.401 378.070,130.914 377.762 C 130.427 377.453,129.700 377.200,129.299 377.200 C 128.897 377.200,127.903 376.860,127.089 376.445 C 126.275 376.030,124.995 375.575,124.245 375.435 C 123.494 375.294,122.660 374.914,122.391 374.589 C 122.122 374.265,121.598 374.000,121.226 374.000 C 120.540 374.000,113.603 370.607,111.400 369.194 C 110.740 368.771,109.661 368.122,109.002 367.751 C 106.958 366.603,102.336 363.045,100.101 360.900 C 99.586 360.405,99.068 360.000,98.951 360.000 C 98.567 360.000,96.400 357.671,96.400 357.258 C 96.400 357.036,96.040 356.740,95.600 356.600 C 95.160 356.460,94.800 356.103,94.800 355.806 C 94.800 355.510,94.641 355.207,94.446 355.133 C 93.894 354.925,90.000 350.133,90.000 349.661 C 90.000 349.429,89.775 349.096,89.500 348.920 C 88.903 348.538,88.064 347.104,86.389 343.600 C 85.705 342.170,84.888 340.522,84.573 339.938 C 84.258 339.354,83.994 338.634,83.986 338.338 C 83.979 338.042,83.625 337.080,83.200 336.200 C 82.775 335.320,82.421 334.038,82.414 333.352 C 82.406 332.666,82.040 330.977,81.600 329.600 C 80.424 325.919,80.424 314.041,81.600 310.696 C 82.040 309.444,82.401 307.830,82.402 307.110 C 82.404 306.389,82.667 305.297,82.988 304.683 C 83.308 304.069,83.693 302.899,83.844 302.083 C 83.994 301.267,84.451 299.973,84.859 299.206 C 85.266 298.439,85.600 297.553,85.600 297.237 C 85.600 296.921,85.839 296.379,86.131 296.031 C 86.423 295.684,86.880 294.635,87.147 293.700 C 87.414 292.765,87.805 292.000,88.016 292.000 C 88.227 292.000,88.400 291.710,88.400 291.356 C 88.400 290.593,90.787 286.800,91.267 286.800 C 91.450 286.800,91.600 286.565,91.600 286.278 C 91.600 283.772,107.413 268.000,109.925 268.000 C 110.186 268.000,110.400 267.816,110.400 267.590 C 110.400 267.365,110.805 267.008,111.300 266.797 C 111.795 266.586,112.920 265.965,113.800 265.416 C 118.571 262.442,125.248 258.848,126.051 258.821 C 126.409 258.810,126.914 258.544,127.174 258.231 C 127.434 257.918,128.345 257.544,129.200 257.400 C 130.055 257.256,130.962 256.886,131.217 256.579 C 131.472 256.272,132.294 255.906,133.045 255.765 C 133.795 255.624,134.500 255.362,134.611 255.182 C 134.723 255.001,135.846 254.641,137.107 254.381 C 138.368 254.121,139.850 253.683,140.400 253.408 C 140.950 253.132,142.097 252.781,142.949 252.626 C 143.801 252.472,144.791 252.177,145.149 251.972 C 145.507 251.766,147.060 251.318,148.600 250.976 C 150.140 250.634,152.930 249.991,154.800 249.548 C 156.670 249.105,159.805 248.496,161.766 248.195 C 163.727 247.895,166.157 247.462,167.166 247.235 C 168.175 247.008,171.158 246.621,173.797 246.375 C 176.435 246.129,178.746 245.833,178.934 245.717 C 179.121 245.601,182.363 245.303,186.137 245.053 C 192.792 244.614,193.004 244.573,193.128 243.700 C 193.198 243.205,193.080 242.800,192.866 242.800 C 192.651 242.800,191.966 241.945,191.343 240.900 C 190.720 239.855,189.988 238.640,189.716 238.200 C 189.444 237.760,188.949 236.827,188.617 236.127 C 188.284 235.427,187.843 234.750,187.637 234.623 C 187.430 234.495,187.146 233.865,187.005 233.223 C 186.864 232.581,186.509 231.856,186.216 231.613 C 185.923 231.370,185.560 230.512,185.409 229.706 C 185.258 228.900,184.879 227.877,184.567 227.431 C 183.546 225.973,183.762 209.281,184.829 207.235 C 185.285 206.360,185.600 205.140,185.529 204.522 L 185.400 203.400 176.000 203.167 C 167.049 202.944,158.399 202.118,155.800 201.238 C 155.140 201.014,152.980 200.366,151.000 199.796 C 149.020 199.227,146.860 198.509,146.200 198.201 C 145.540 197.893,143.830 197.164,142.400 196.580 C 140.970 195.997,139.516 195.268,139.169 194.960 C 138.821 194.652,138.387 194.400,138.203 194.400 C 137.871 194.400,130.352 189.502,129.200 188.536 C 124.242 184.376,116.396 175.871,113.762 171.800 C 111.673 168.572,111.461 168.203,109.987 165.200 C 109.284 163.770,108.370 161.945,107.955 161.146 C 107.540 160.346,107.200 159.415,107.200 159.078 C 107.200 158.741,106.940 157.955,106.621 157.332 C 105.733 155.595,104.786 152.492,104.201 149.400 C 103.910 147.860,103.482 145.970,103.251 145.200 C 103.020 144.430,102.779 140.427,102.715 136.304 L 102.600 128.807 68.933 128.804 C 34.081 128.800,34.000 128.797,34.000 127.576 C 34.000 127.128,54.180 106.656,85.214 75.619 L 136.428 24.400 240.800 24.400 C 343.722 24.400,345.178 24.411,345.588 25.177 M177.000 67.588 C 175.460 67.770,173.660 68.207,173.000 68.557 C 172.340 68.908,171.440 69.196,171.000 69.196 C 170.560 69.197,169.390 69.585,168.400 70.057 C 167.410 70.530,165.798 71.295,164.819 71.758 C 156.816 75.539,149.707 84.102,147.515 92.600 C 147.288 93.480,146.850 94.938,146.541 95.840 C 146.232 96.742,145.815 99.358,145.613 101.653 C 145.411 103.948,145.056 106.327,144.823 106.939 C 144.261 108.418,144.280 115.429,144.850 116.493 C 145.097 116.955,145.452 119.381,145.639 121.882 C 145.826 124.384,146.253 127.240,146.589 128.229 C 146.925 129.219,147.204 130.607,147.210 131.314 C 147.219 132.609,147.328 133.092,148.760 138.200 C 149.192 139.740,149.823 141.990,150.161 143.200 C 150.500 144.410,150.952 145.760,151.167 146.200 C 151.382 146.640,152.028 148.260,152.603 149.800 C 154.533 154.968,160.370 165.483,162.041 166.800 C 162.181 166.910,163.214 168.170,164.338 169.600 C 166.746 172.666,170.587 176.642,172.000 177.532 C 172.550 177.878,173.712 178.710,174.583 179.381 C 179.892 183.469,192.363 187.374,197.600 186.588 C 203.330 185.728,206.813 185.043,207.860 184.569 C 208.554 184.256,209.256 184.000,209.422 184.000 C 209.587 184.000,210.730 183.540,211.961 182.978 C 220.211 179.211,224.791 175.647,227.882 170.589 C 229.647 167.701,230.802 165.541,230.814 165.106 C 230.821 164.828,231.175 163.880,231.600 163.000 C 232.025 162.120,232.379 160.938,232.386 160.373 C 232.394 159.808,232.715 158.368,233.100 157.173 C 234.134 153.963,234.130 133.669,233.094 130.427 C 232.712 129.232,232.400 127.606,232.400 126.814 C 232.400 126.021,232.040 124.348,231.600 123.096 C 231.160 121.844,230.800 120.360,230.800 119.797 C 230.800 119.235,230.521 118.107,230.181 117.292 C 229.840 116.477,229.400 115.177,229.203 114.405 C 228.438 111.400,226.147 105.141,225.027 102.993 C 224.685 102.337,224.404 101.614,224.402 101.387 C 224.401 101.160,223.586 99.450,222.592 97.587 C 221.598 95.724,220.473 93.570,220.092 92.800 C 219.711 92.030,219.175 91.256,218.900 91.080 C 218.625 90.904,218.400 90.580,218.400 90.359 C 218.400 89.566,214.039 84.082,211.347 81.489 C 205.592 75.947,204.247 74.733,202.605 73.604 C 200.031 71.833,194.862 69.200,193.959 69.200 C 193.517 69.200,192.389 68.851,191.451 68.423 C 189.438 67.506,181.540 67.049,177.000 67.588 M191.800 261.558 C 188.940 261.691,186.398 261.932,186.150 262.093 C 185.903 262.254,183.923 262.567,181.750 262.789 C 179.578 263.011,176.540 263.460,175.000 263.787 C 173.460 264.114,171.300 264.559,170.200 264.776 C 165.776 265.648,162.875 266.409,161.767 266.987 C 161.125 267.321,160.290 267.596,159.911 267.598 C 159.532 267.599,158.362 267.981,157.311 268.447 C 156.260 268.913,154.860 269.528,154.200 269.813 C 150.168 271.553,148.104 272.486,147.400 272.887 C 146.960 273.137,146.240 273.538,145.800 273.778 C 144.801 274.322,142.667 275.711,142.400 275.991 C 141.945 276.467,138.832 278.800,138.652 278.800 C 138.377 278.800,130.686 286.525,130.200 287.289 C 129.980 287.635,129.254 288.702,128.586 289.659 C 127.918 290.617,127.131 291.985,126.837 292.700 C 126.543 293.415,126.145 294.000,125.951 294.000 C 125.758 294.000,125.600 294.385,125.600 294.856 C 125.600 295.327,125.260 296.452,124.845 297.356 C 122.353 302.778,122.359 318.216,124.855 323.896 C 125.265 324.828,125.600 325.970,125.600 326.433 C 125.600 326.895,125.960 327.731,126.400 328.291 C 126.840 328.850,127.200 329.622,127.200 330.005 C 127.200 330.388,127.463 330.920,127.785 331.187 C 128.106 331.454,128.484 332.034,128.624 332.476 C 128.764 332.917,129.176 333.594,129.539 333.979 C 129.903 334.363,130.549 335.201,130.975 335.839 C 131.829 337.118,139.252 344.530,140.950 345.800 C 141.539 346.240,142.241 346.782,142.510 347.005 C 142.980 347.394,144.123 348.194,146.360 349.701 C 146.932 350.086,147.973 350.669,148.673 350.995 C 149.373 351.321,150.050 351.757,150.177 351.963 C 150.305 352.170,150.935 352.454,151.577 352.595 C 152.219 352.736,152.945 353.092,153.189 353.386 C 153.433 353.681,154.120 354.043,154.716 354.192 C 155.312 354.341,156.070 354.696,156.400 354.980 C 156.730 355.265,157.657 355.616,158.460 355.760 C 159.263 355.904,160.140 356.286,160.409 356.611 C 160.678 356.935,161.558 357.200,162.364 357.200 C 163.171 357.200,164.537 357.560,165.400 358.000 C 166.263 358.440,167.622 358.800,168.421 358.800 C 169.220 358.800,170.756 359.079,171.836 359.421 C 172.916 359.763,175.420 360.213,177.400 360.421 C 179.380 360.629,183.160 361.022,185.800 361.293 C 191.997 361.931,201.471 361.934,206.800 361.301 C 209.110 361.026,212.464 360.636,214.253 360.433 C 216.042 360.230,218.343 359.779,219.367 359.432 C 220.390 359.084,221.814 358.800,222.529 358.800 C 223.245 358.800,224.537 358.440,225.400 358.000 C 226.263 357.560,227.452 357.200,228.042 357.200 C 228.632 357.200,229.214 356.940,229.336 356.622 C 229.458 356.304,230.191 355.925,230.965 355.780 C 231.738 355.635,232.570 355.277,232.813 354.984 C 233.056 354.691,233.783 354.336,234.428 354.194 C 235.072 354.052,235.600 353.793,235.600 353.617 C 235.600 353.441,236.185 353.061,236.900 352.772 C 237.615 352.483,238.344 352.011,238.520 351.723 C 238.696 351.436,239.023 351.200,239.247 351.200 C 239.997 351.200,246.331 345.750,248.394 343.329 C 252.884 338.061,255.679 332.379,257.213 325.400 C 257.665 323.347,257.660 310.759,257.207 308.400 C 256.239 303.364,251.808 294.490,248.400 290.761 C 244.783 286.805,242.208 284.351,238.610 281.436 C 233.728 277.479,233.983 277.692,231.600 275.595 C 230.610 274.724,229.677 274.009,229.527 274.006 C 229.377 274.003,227.371 272.515,225.069 270.700 C 222.767 268.885,220.488 267.130,220.005 266.800 C 219.521 266.470,218.066 265.435,216.769 264.500 C 215.473 263.565,214.289 262.800,214.138 262.800 C 213.987 262.800,213.515 262.485,213.090 262.100 C 212.230 261.320,202.326 261.068,191.800 261.558 " stroke="none" fill="#4484f4" fill-rule="evenodd"></path><path id="path2" d="M85.690 76.110 C 33.260 128.541,33.334 128.463,36.180 128.375 C 36.954 128.351,36.949 128.329,36.100 127.988 C 35.605 127.789,35.200 127.485,35.200 127.312 C 35.200 126.854,136.890 25.325,137.600 25.075 C 138.133 24.887,138.133 24.860,137.599 24.832 C 137.269 24.814,113.910 47.890,85.690 76.110 M343.980 25.242 C 344.918 25.617,344.570 26.023,335.880 34.720 C 330.886 39.717,326.800 43.904,326.800 44.023 C 326.800 44.142,330.985 40.039,336.100 34.906 C 345.413 25.560,346.013 24.754,343.600 24.831 C 343.270 24.842,343.441 25.027,343.980 25.242 M292.895 77.709 C 280.853 89.758,271.200 99.727,271.200 100.114 C 271.200 100.911,272.618 106.182,272.998 106.797 C 273.137 107.022,273.687 109.769,274.221 112.903 C 276.856 128.360,274.412 145.027,267.765 156.945 C 263.049 165.402,255.506 173.750,243.800 183.469 C 231.468 193.707,227.357 199.446,226.900 207.055 C 226.478 214.082,229.622 219.332,238.565 226.535 C 240.564 228.145,245.440 232.044,249.400 235.198 C 275.657 256.114,286.346 270.288,289.221 288.000 C 295.424 326.213,267.488 363.545,223.400 375.959 C 213.661 378.701,210.535 379.442,206.206 380.033 C 204.450 380.272,202.863 380.561,202.681 380.674 C 202.213 380.963,195.785 381.545,187.800 382.021 C 184.060 382.244,179.470 382.533,177.600 382.662 C 175.730 382.792,172.490 382.700,170.400 382.457 C 165.738 381.916,155.103 381.560,157.400 382.022 C 170.140 384.586,203.059 382.346,219.000 377.831 C 224.191 376.361,231.677 373.849,233.442 372.984 C 234.519 372.457,235.547 372.019,235.728 372.013 C 236.739 371.974,250.892 364.501,253.771 362.485 C 254.887 361.704,256.333 360.690,256.985 360.232 C 264.371 355.044,271.803 347.843,276.008 341.800 C 276.774 340.700,277.498 339.710,277.618 339.600 C 278.226 339.042,281.302 333.752,282.968 330.400 C 284.007 328.310,285.042 326.259,285.268 325.842 C 285.825 324.815,287.139 321.045,287.791 318.600 C 288.085 317.500,288.515 316.060,288.746 315.400 C 288.978 314.740,289.352 312.940,289.578 311.400 C 289.804 309.860,290.163 307.790,290.377 306.800 C 290.978 304.015,290.891 293.727,290.245 291.184 C 289.940 289.983,289.568 287.920,289.419 286.600 C 287.628 270.756,275.524 255.330,247.022 232.567 C 233.055 221.412,229.672 217.814,228.012 212.350 C 225.586 204.361,229.882 195.926,241.200 186.460 C 263.807 167.553,270.331 158.379,274.669 139.400 C 275.695 134.907,275.752 114.989,274.748 111.600 C 274.390 110.390,273.803 108.230,273.444 106.800 C 273.085 105.370,272.567 103.390,272.293 102.400 C 272.019 101.410,271.849 100.233,271.914 99.786 C 271.980 99.338,281.703 89.303,293.522 77.486 C 305.341 65.668,314.916 56.000,314.800 56.000 C 314.685 56.000,304.827 65.769,292.895 77.709 M315.200 63.400 C 315.200 70.110,314.849 71.600,313.267 71.600 C 312.917 71.600,310.400 75.297,310.400 75.812 C 310.400 75.977,310.867 75.412,311.437 74.556 C 312.008 73.700,313.178 72.346,314.037 71.546 L 315.600 70.092 315.600 63.446 C 315.600 59.791,315.510 56.800,315.400 56.800 C 315.290 56.800,315.200 59.770,315.200 63.400 M175.200 66.605 C 149.511 72.335,138.189 95.656,145.004 128.800 C 146.809 137.580,149.747 148.030,150.796 149.400 C 150.964 149.620,151.238 150.250,151.403 150.800 C 152.198 153.441,155.442 159.545,158.735 164.600 C 174.605 188.953,198.769 194.961,220.766 180.023 C 236.507 169.333,240.200 142.754,230.187 112.218 C 219.541 79.753,197.653 61.596,175.200 66.605 M187.671 66.808 C 201.544 69.521,212.140 78.061,221.906 94.400 C 232.847 112.704,237.936 142.935,233.116 161.000 C 226.588 185.470,194.366 195.566,173.400 179.711 C 168.148 175.739,160.870 167.578,157.963 162.400 C 157.531 161.630,156.837 160.460,156.421 159.800 C 151.309 151.696,146.411 136.241,144.822 123.200 C 144.567 121.110,144.188 118.299,143.980 116.954 C 142.560 107.808,145.659 91.254,150.107 84.221 C 158.135 71.529,174.062 64.146,187.671 66.808 M326.836 69.000 C 326.822 69.542,327.455 70.186,328.802 71.000 C 329.921 71.676,331.260 72.939,331.869 73.892 C 332.463 74.823,333.033 75.501,333.134 75.399 C 333.549 74.985,330.972 71.924,329.248 70.783 C 328.231 70.110,327.278 69.254,327.128 68.880 C 326.895 68.296,326.853 68.313,326.836 69.000 M333.219 76.000 C 333.215 76.110,333.471 76.920,333.788 77.800 C 334.643 80.172,334.655 185.387,333.800 187.785 C 333.151 189.608,333.289 190.100,334.068 188.734 C 334.630 187.748,335.132 83.864,334.597 79.345 C 334.410 77.769,333.254 74.962,333.219 76.000 M309.614 77.174 C 309.386 77.599,309.218 78.454,309.241 79.074 L 309.282 80.200 309.591 79.000 C 309.762 78.340,310.033 77.485,310.193 77.100 C 310.590 76.150,310.130 76.209,309.614 77.174 M103.143 128.729 C 103.444 128.935,103.584 129.433,103.457 129.850 C 102.395 133.327,104.294 147.634,106.834 155.295 C 108.891 161.501,112.733 169.201,115.568 172.800 C 116.174 173.570,116.909 174.650,117.202 175.200 C 120.762 181.899,136.509 193.462,148.000 197.814 C 156.648 201.090,167.851 202.695,179.370 202.307 C 187.517 202.034,187.281 201.853,185.652 207.095 C 184.007 212.389,183.806 221.976,185.240 226.658 C 186.442 230.579,190.884 239.227,192.556 240.899 C 196.447 244.790,195.453 245.371,183.200 246.365 C 180.450 246.588,176.805 246.957,175.100 247.185 C 173.395 247.413,170.678 247.772,169.061 247.982 C 161.666 248.945,146.981 252.120,142.200 253.791 C 141.320 254.099,139.250 254.746,137.600 255.230 C 131.530 257.011,118.943 262.694,116.769 264.636 C 116.421 264.946,115.983 265.200,115.794 265.200 C 115.461 265.200,107.601 270.321,107.200 270.799 C 107.090 270.930,105.920 271.868,104.600 272.884 C 98.289 277.741,90.912 286.986,88.059 293.614 C 87.541 294.816,86.877 296.340,86.583 297.000 C 79.743 312.342,79.926 329.543,87.076 343.400 C 89.495 348.087,90.543 349.609,94.100 353.600 C 94.394 353.930,95.401 355.136,96.338 356.281 C 100.643 361.537,112.331 369.519,120.800 372.986 C 122.230 373.571,123.940 374.294,124.600 374.593 C 127.142 375.743,135.613 378.328,140.200 379.353 C 142.840 379.942,145.810 380.612,146.800 380.841 C 147.790 381.070,150.130 381.314,152.000 381.382 C 153.870 381.450,154.770 381.435,154.000 381.347 C 111.411 376.512,82.003 351.536,82.003 320.200 C 82.003 313.723,84.820 300.621,86.819 297.800 C 86.975 297.580,87.236 296.950,87.401 296.400 C 87.925 294.644,90.670 289.378,92.220 287.153 C 106.908 266.068,135.477 252.421,174.200 247.990 C 181.732 247.128,189.476 246.416,191.411 246.408 C 195.886 246.390,196.069 245.212,192.464 239.633 C 185.921 229.510,185.200 227.330,185.200 217.669 C 185.200 211.346,185.293 210.411,186.226 207.352 C 186.790 205.502,187.195 203.496,187.126 202.894 L 187.000 201.800 175.800 201.559 C 163.412 201.293,160.183 200.876,152.445 198.539 C 125.141 190.295,106.072 166.691,104.183 138.800 C 103.816 133.377,103.784 131.712,104.013 130.006 C 104.169 128.844,104.067 128.591,103.400 128.485 C 102.802 128.389,102.737 128.451,103.143 128.729 M309.241 186.516 C 309.047 191.797,316.169 197.460,322.579 197.122 C 325.822 196.951,326.129 196.837,329.668 194.504 C 331.085 193.569,333.506 190.573,333.140 190.207 C 333.041 190.108,332.497 190.743,331.929 191.619 C 326.178 200.488,312.187 197.347,309.574 186.600 L 309.282 185.400 309.241 186.516 M198.767 259.358 C 198.639 259.490,195.849 259.772,192.567 259.983 C 173.998 261.179,153.289 266.747,143.812 273.093 C 128.135 283.590,121.795 294.395,121.805 310.600 C 121.819 334.098,139.649 353.492,166.800 359.545 C 167.790 359.766,169.320 360.123,170.200 360.340 C 182.483 363.357,204.819 363.903,215.904 361.456 C 217.387 361.129,219.410 360.682,220.400 360.464 C 224.314 359.600,227.180 358.800,228.654 358.159 C 250.335 348.743,259.558 335.865,259.088 315.663 C 258.819 304.111,256.446 298.276,247.871 288.078 C 243.027 282.319,218.407 262.774,212.860 260.285 C 211.022 259.460,199.406 258.696,198.767 259.358 M213.000 261.146 C 217.192 263.147,240.189 280.890,245.072 285.891 C 262.342 303.580,263.734 327.152,248.521 344.313 C 244.813 348.495,236.222 354.757,232.772 355.792 C 232.237 355.952,231.440 356.307,231.000 356.581 C 230.560 356.855,229.480 357.309,228.600 357.591 C 227.720 357.874,226.820 358.244,226.600 358.415 C 226.380 358.586,225.164 358.917,223.899 359.150 C 222.633 359.383,221.283 359.739,220.899 359.941 C 220.514 360.143,219.066 360.438,217.679 360.596 C 216.293 360.754,214.223 361.134,213.079 361.439 C 206.192 363.280,177.826 362.203,170.000 359.803 C 169.010 359.499,167.390 359.128,166.400 358.979 C 165.410 358.829,164.271 358.534,163.869 358.323 C 163.467 358.112,162.297 357.699,161.269 357.407 C 147.940 353.612,133.002 342.298,127.393 331.749 C 126.848 330.723,126.249 329.685,126.063 329.442 C 125.694 328.960,124.957 326.855,123.320 321.600 C 120.426 312.311,122.357 297.670,127.470 290.135 C 127.981 289.381,128.400 288.658,128.400 288.527 C 128.400 287.517,135.775 279.766,139.000 277.386 C 139.880 276.736,140.690 276.107,140.800 275.988 C 141.303 275.445,145.982 272.536,147.600 271.761 C 158.347 266.612,164.638 264.648,177.501 262.422 C 183.776 261.336,188.345 260.810,191.990 260.753 C 193.645 260.727,195.540 260.568,196.200 260.400 C 199.790 259.486,210.521 259.963,213.000 261.146 " stroke="none" fill="#87b1f8" fill-rule="evenodd"></path><path id="path3" d="M85.214 75.619 C 54.180 106.656,34.000 127.128,34.000 127.576 C 34.000 128.797,34.081 128.800,68.933 128.804 L 102.600 128.807 102.715 136.304 C 102.779 140.427,103.020 144.430,103.251 145.200 C 103.482 145.970,103.910 147.860,104.201 149.400 C 104.786 152.492,105.733 155.595,106.621 157.332 C 106.940 157.955,107.200 158.741,107.200 159.078 C 107.200 159.415,107.540 160.346,107.955 161.146 C 108.370 161.945,109.284 163.770,109.987 165.200 C 113.733 172.828,121.007 181.663,129.200 188.536 C 130.352 189.502,137.871 194.400,138.203 194.400 C 138.387 194.400,138.821 194.652,139.169 194.960 C 139.516 195.268,140.970 195.997,142.400 196.580 C 143.830 197.164,145.540 197.893,146.200 198.201 C 146.860 198.509,149.020 199.227,151.000 199.796 C 152.980 200.366,155.140 201.014,155.800 201.238 C 158.399 202.118,167.049 202.944,176.000 203.167 L 185.400 203.400 185.529 204.522 C 185.600 205.140,185.285 206.360,184.829 207.235 C 183.762 209.281,183.546 225.973,184.567 227.431 C 184.879 227.877,185.258 228.900,185.409 229.706 C 185.560 230.512,185.923 231.370,186.216 231.613 C 186.509 231.856,186.864 232.581,187.005 233.223 C 187.146 233.865,187.430 234.495,187.637 234.623 C 187.843 234.750,188.284 235.427,188.617 236.127 C 188.949 236.827,189.444 237.760,189.716 238.200 C 189.988 238.640,190.720 239.855,191.343 240.900 C 191.966 241.945,192.651 242.800,192.866 242.800 C 193.080 242.800,193.198 243.205,193.128 243.700 C 193.004 244.573,192.792 244.614,186.137 245.053 C 182.363 245.303,179.121 245.601,178.934 245.717 C 178.746 245.833,176.435 246.129,173.797 246.375 C 171.158 246.621,168.175 247.008,167.166 247.235 C 166.157 247.462,163.727 247.895,161.766 248.195 C 159.805 248.496,156.670 249.105,154.800 249.548 C 152.930 249.991,150.140 250.634,148.600 250.976 C 147.060 251.318,145.507 251.766,145.149 251.972 C 144.791 252.177,143.801 252.472,142.949 252.626 C 142.097 252.781,140.950 253.132,140.400 253.408 C 139.850 253.683,138.368 254.121,137.107 254.381 C 135.846 254.641,134.723 255.001,134.611 255.182 C 134.500 255.362,133.795 255.624,133.045 255.765 C 132.294 255.906,131.472 256.272,131.217 256.579 C 130.962 256.886,130.055 257.256,129.200 257.400 C 128.345 257.544,127.434 257.918,127.174 258.231 C 126.914 258.544,126.409 258.810,126.051 258.821 C 125.248 258.848,118.571 262.442,113.800 265.416 C 112.920 265.965,111.795 266.586,111.300 266.797 C 110.805 267.008,110.400 267.365,110.400 267.590 C 110.400 267.816,110.186 268.000,109.925 268.000 C 107.413 268.000,91.600 283.772,91.600 286.278 C 91.600 286.565,91.450 286.800,91.267 286.800 C 90.787 286.800,88.400 290.593,88.400 291.356 C 88.400 291.710,88.227 292.000,88.016 292.000 C 87.805 292.000,87.414 292.765,87.147 293.700 C 86.880 294.635,86.423 295.684,86.131 296.031 C 85.839 296.379,85.600 296.921,85.600 297.237 C 85.600 297.553,85.266 298.439,84.859 299.206 C 84.451 299.973,83.994 301.267,83.844 302.083 C 83.693 302.899,83.308 304.069,82.988 304.683 C 82.667 305.297,82.404 306.389,82.402 307.110 C 82.401 307.830,82.040 309.444,81.600 310.696 C 80.424 314.041,80.424 325.919,81.600 329.600 C 82.040 330.977,82.406 332.666,82.414 333.352 C 82.421 334.038,82.775 335.320,83.200 336.200 C 83.625 337.080,83.979 338.042,83.986 338.338 C 83.994 338.634,84.258 339.354,84.573 339.938 C 84.888 340.522,85.705 342.170,86.389 343.600 C 88.064 347.104,88.903 348.538,89.500 348.920 C 89.775 349.096,90.000 349.429,90.000 349.661 C 90.000 350.133,93.894 354.925,94.446 355.133 C 94.641 355.207,94.800 355.510,94.800 355.806 C 94.800 356.103,95.160 356.460,95.600 356.600 C 96.040 356.740,96.400 357.036,96.400 357.258 C 96.400 357.671,98.567 360.000,98.951 360.000 C 99.068 360.000,99.586 360.405,100.101 360.900 C 102.336 363.045,106.958 366.603,109.002 367.751 C 109.661 368.122,110.740 368.771,111.400 369.194 C 113.603 370.607,120.540 374.000,121.226 374.000 C 121.598 374.000,122.122 374.265,122.391 374.589 C 122.660 374.914,123.494 375.294,124.245 375.435 C 124.995 375.575,126.275 376.030,127.089 376.445 C 127.903 376.860,128.897 377.200,129.299 377.200 C 129.700 377.200,130.427 377.453,130.914 377.762 C 131.401 378.070,132.610 378.451,133.600 378.607 C 134.590 378.763,135.580 379.035,135.801 379.212 C 136.597 379.850,145.247 381.441,154.345 382.623 C 167.160 384.287,202.337 383.139,210.200 380.800 C 210.860 380.604,212.300 380.321,213.400 380.172 C 214.500 380.023,215.958 379.674,216.641 379.396 C 217.323 379.118,218.673 378.759,219.641 378.599 C 220.608 378.438,221.748 378.124,222.173 377.901 C 222.598 377.677,223.858 377.263,224.973 376.980 C 228.170 376.169,230.727 375.201,234.800 373.257 C 235.790 372.784,236.891 372.398,237.246 372.399 C 237.601 372.400,238.350 372.040,238.909 371.600 C 239.469 371.160,240.173 370.800,240.474 370.800 C 240.775 370.800,241.467 370.486,242.011 370.102 C 242.555 369.719,244.654 368.568,246.676 367.546 C 250.855 365.433,259.566 359.755,259.878 358.940 C 259.992 358.643,260.257 358.400,260.466 358.400 C 261.693 358.400,270.697 350.110,273.934 346.000 C 275.060 344.570,276.211 343.137,276.491 342.815 C 277.144 342.064,277.820 340.934,278.595 339.300 C 278.934 338.585,279.361 338.000,279.546 338.000 C 279.730 338.000,280.479 336.821,281.210 335.381 C 281.941 333.940,282.674 332.678,282.839 332.576 C 283.004 332.474,283.257 331.853,283.401 331.195 C 283.545 330.538,283.815 330.000,284.001 330.000 C 284.186 330.000,284.559 329.330,284.829 328.511 C 285.100 327.692,285.564 326.779,285.860 326.482 C 286.157 326.186,286.400 325.589,286.400 325.155 C 286.400 324.722,286.760 323.662,287.200 322.800 C 287.640 321.938,288.000 320.884,288.000 320.460 C 288.000 320.035,288.356 318.903,288.791 317.944 C 289.226 316.985,289.586 315.516,289.591 314.680 C 289.596 313.844,289.915 312.584,290.300 311.880 C 290.920 310.747,291.000 309.312,291.000 299.400 C 291.000 289.488,290.920 288.053,290.300 286.920 C 289.915 286.216,289.594 284.866,289.586 283.920 C 289.579 282.974,289.225 281.480,288.800 280.600 C 288.375 279.720,288.021 278.668,288.014 278.262 C 288.006 277.856,287.743 277.046,287.430 276.462 C 287.116 275.878,286.274 274.140,285.559 272.600 C 284.844 271.060,284.124 269.708,283.961 269.596 C 283.797 269.484,283.536 268.884,283.380 268.264 C 283.224 267.643,282.850 267.041,282.549 266.925 C 282.247 266.809,282.000 266.566,282.000 266.384 C 282.000 265.828,279.503 262.000,279.140 262.000 C 278.953 262.000,278.800 261.800,278.800 261.557 C 278.800 260.173,268.180 248.964,261.407 243.200 C 259.469 241.550,257.469 239.840,256.964 239.400 C 254.571 237.316,252.655 235.767,252.057 235.433 C 251.156 234.930,247.935 232.381,247.200 231.590 C 246.870 231.234,245.790 230.329,244.800 229.578 C 243.810 228.826,242.791 228.029,242.536 227.806 C 242.280 227.583,241.302 226.770,240.363 226.000 C 236.143 222.543,230.749 216.708,229.703 214.471 C 227.777 210.348,228.379 202.488,230.888 199.000 C 234.210 194.382,237.758 190.572,242.190 186.867 C 243.945 185.400,245.664 183.930,246.010 183.600 C 246.357 183.270,247.647 182.131,248.876 181.070 C 256.589 174.412,264.850 165.301,267.987 159.993 C 269.472 157.479,272.395 151.330,272.397 150.714 C 272.399 150.336,272.655 149.436,272.967 148.714 C 274.175 145.911,275.192 142.057,275.581 138.800 C 275.804 136.930,276.166 134.230,276.385 132.800 C 276.964 129.024,276.888 120.630,276.239 116.752 C 275.931 114.909,275.558 112.238,275.410 110.817 C 275.262 109.397,274.905 107.668,274.616 106.976 C 274.327 106.285,273.967 104.988,273.816 104.096 C 273.665 103.204,273.291 102.142,272.984 101.737 C 271.835 100.221,272.497 99.470,293.600 78.370 L 314.800 57.173 314.800 63.405 C 314.800 69.800,314.260 71.600,312.342 71.600 C 312.154 71.600,312.000 71.864,312.000 72.186 C 312.000 72.508,311.640 72.965,311.200 73.200 C 310.760 73.435,310.396 73.847,310.391 74.114 C 310.386 74.381,310.030 75.050,309.600 75.600 C 308.370 77.172,308.370 188.428,309.600 190.000 C 310.030 190.550,310.386 191.223,310.391 191.497 C 310.396 191.770,310.760 192.218,311.200 192.493 C 311.640 192.768,312.000 193.225,312.000 193.509 C 312.000 193.793,312.301 194.141,312.669 194.282 C 313.038 194.423,313.668 194.868,314.069 195.269 C 314.471 195.671,315.070 196.000,315.400 196.000 C 315.730 196.000,316.000 196.166,316.000 196.369 C 316.000 197.929,325.820 198.029,327.778 196.489 C 328.399 196.000,329.154 195.600,329.454 195.600 C 329.754 195.600,330.000 195.330,330.000 195.000 C 330.000 194.670,330.236 194.400,330.525 194.400 C 331.027 194.400,331.924 193.357,333.896 190.482 C 334.468 189.649,334.785 188.620,334.759 187.682 L 334.718 186.200 334.403 187.400 C 331.686 197.749,317.571 200.743,311.774 192.199 C 308.944 188.029,309.200 193.940,309.200 132.843 L 309.200 78.054 310.114 76.327 C 311.635 73.451,312.859 71.600,313.240 71.600 C 314.862 71.600,315.200 70.154,315.200 63.200 C 315.200 59.460,315.063 56.400,314.895 56.400 C 314.727 56.400,305.009 65.987,293.299 77.705 C 270.626 100.392,271.457 99.405,272.335 102.600 C 272.576 103.480,273.072 105.370,273.435 106.800 C 273.799 108.230,274.390 110.390,274.748 111.600 C 275.752 114.989,275.695 134.907,274.669 139.400 C 270.331 158.379,263.807 167.553,241.200 186.460 C 229.882 195.926,225.586 204.361,228.012 212.350 C 229.672 217.814,233.055 221.412,247.022 232.567 C 275.524 255.330,287.628 270.756,289.419 286.600 C 289.568 287.920,289.940 289.983,290.245 291.184 C 290.891 293.727,290.978 304.015,290.377 306.800 C 290.163 307.790,289.804 309.860,289.578 311.400 C 289.352 312.940,288.978 314.740,288.746 315.400 C 288.515 316.060,288.085 317.500,287.791 318.600 C 287.139 321.045,285.825 324.815,285.268 325.842 C 285.042 326.259,284.007 328.310,282.968 330.400 C 281.302 333.752,278.226 339.042,277.618 339.600 C 277.498 339.710,276.774 340.700,276.008 341.800 C 271.803 347.843,264.371 355.044,256.985 360.232 C 256.333 360.690,254.887 361.704,253.771 362.485 C 250.892 364.501,236.739 371.974,235.728 372.013 C 235.547 372.019,234.519 372.457,233.442 372.984 C 231.677 373.849,224.191 376.361,219.000 377.831 C 205.463 381.665,184.495 383.680,167.263 382.802 C 162.534 382.561,158.533 382.282,158.370 382.181 C 158.207 382.081,155.910 381.821,153.266 381.605 C 150.622 381.389,147.680 381.035,146.729 380.819 C 145.778 380.602,142.840 379.942,140.200 379.353 C 135.613 378.328,127.142 375.743,124.600 374.593 C 123.940 374.294,122.230 373.571,120.800 372.986 C 112.331 369.519,100.643 361.537,96.338 356.281 C 95.401 355.136,94.394 353.930,94.100 353.600 C 90.543 349.609,89.495 348.087,87.076 343.400 C 79.926 329.543,79.743 312.342,86.583 297.000 C 86.877 296.340,87.541 294.816,88.059 293.614 C 90.912 286.986,98.289 277.741,104.600 272.884 C 105.920 271.868,107.090 270.930,107.200 270.799 C 107.601 270.321,115.461 265.200,115.794 265.200 C 115.983 265.200,116.421 264.946,116.769 264.636 C 118.943 262.694,131.530 257.011,137.600 255.230 C 139.250 254.746,141.320 254.099,142.200 253.791 C 146.981 252.120,161.666 248.945,169.061 247.982 C 170.678 247.772,173.395 247.413,175.100 247.185 C 176.805 246.957,180.450 246.588,183.200 246.365 C 195.453 245.371,196.447 244.790,192.556 240.899 C 190.884 239.227,186.442 230.579,185.240 226.658 C 183.806 221.976,184.007 212.389,185.652 207.095 C 187.281 201.853,187.517 202.034,179.370 202.307 C 159.832 202.964,144.513 198.546,130.419 188.189 C 126.932 185.627,118.164 177.010,117.202 175.200 C 116.909 174.650,116.174 173.570,115.568 172.800 C 112.733 169.201,108.891 161.501,106.834 155.295 C 104.294 147.634,102.395 133.327,103.457 129.850 C 103.880 128.462,102.693 128.412,68.980 128.406 C 43.001 128.401,35.249 128.289,34.870 127.910 C 34.484 127.524,45.217 116.583,85.690 76.110 L 136.999 24.800 240.599 24.806 C 305.451 24.810,344.424 24.955,344.800 25.193 C 345.278 25.496,343.503 27.477,336.100 34.906 L 326.800 44.239 326.894 56.420 L 326.988 68.600 327.100 56.678 L 327.212 44.755 336.608 35.354 C 344.852 27.106,345.952 25.858,345.588 25.177 C 345.178 24.411,343.722 24.400,240.800 24.400 L 136.428 24.400 85.214 75.619 M176.200 66.998 C 163.900 69.615,156.081 74.776,150.107 84.221 C 145.659 91.254,142.560 107.808,143.980 116.954 C 144.188 118.299,144.567 121.110,144.822 123.200 C 146.411 136.241,151.309 151.696,156.421 159.800 C 156.837 160.460,157.531 161.630,157.963 162.400 C 160.870 167.578,168.148 175.739,173.400 179.711 C 194.366 195.566,226.588 185.470,233.116 161.000 C 237.936 142.935,232.847 112.704,221.906 94.400 C 209.328 73.358,192.821 63.461,176.200 66.998 M191.451 68.423 C 192.389 68.851,193.517 69.200,193.959 69.200 C 194.862 69.200,200.031 71.833,202.605 73.604 C 204.247 74.733,205.592 75.947,211.347 81.489 C 214.039 84.082,218.400 89.566,218.400 90.359 C 218.400 90.580,218.625 90.904,218.900 91.080 C 219.175 91.256,219.711 92.030,220.092 92.800 C 220.473 93.570,221.598 95.724,222.592 97.587 C 223.586 99.450,224.401 101.160,224.402 101.387 C 224.404 101.614,224.685 102.337,225.027 102.993 C 226.147 105.141,228.438 111.400,229.203 114.405 C 229.400 115.177,229.840 116.477,230.181 117.292 C 230.521 118.107,230.800 119.235,230.800 119.797 C 230.800 120.360,231.160 121.844,231.600 123.096 C 232.040 124.348,232.400 126.021,232.400 126.814 C 232.400 127.606,232.712 129.232,233.094 130.427 C 234.130 133.669,234.134 153.963,233.100 157.173 C 232.715 158.368,232.394 159.808,232.386 160.373 C 232.379 160.938,232.025 162.120,231.600 163.000 C 231.175 163.880,230.821 164.828,230.814 165.106 C 230.802 165.541,229.647 167.701,227.882 170.589 C 224.791 175.647,220.211 179.211,211.961 182.978 C 210.730 183.540,209.587 184.000,209.422 184.000 C 209.256 184.000,208.554 184.256,207.860 184.569 C 206.813 185.043,203.330 185.728,197.600 186.588 C 192.363 187.374,179.892 183.469,174.583 179.381 C 173.712 178.710,172.550 177.878,172.000 177.532 C 170.587 176.642,166.746 172.666,164.338 169.600 C 163.214 168.170,162.181 166.910,162.041 166.800 C 160.370 165.483,154.533 154.968,152.603 149.800 C 152.028 148.260,151.382 146.640,151.167 146.200 C 150.952 145.760,150.500 144.410,150.161 143.200 C 149.823 141.990,149.192 139.740,148.760 138.200 C 147.328 133.092,147.219 132.609,147.210 131.314 C 147.204 130.607,146.925 129.219,146.589 128.229 C 146.253 127.240,145.826 124.384,145.639 121.882 C 145.452 119.381,145.097 116.955,144.850 116.493 C 144.280 115.429,144.261 108.418,144.823 106.939 C 145.056 106.327,145.411 103.948,145.613 101.653 C 145.815 99.358,146.232 96.742,146.541 95.840 C 146.850 94.938,147.288 93.480,147.515 92.600 C 149.707 84.102,156.816 75.539,164.819 71.758 C 165.798 71.295,167.410 70.530,168.400 70.057 C 169.390 69.585,170.560 69.197,171.000 69.196 C 171.440 69.196,172.340 68.908,173.000 68.557 C 175.861 67.037,188.211 66.947,191.451 68.423 M327.200 69.155 C 327.200 69.336,328.022 70.003,329.026 70.638 C 331.543 72.229,333.611 75.135,334.406 78.200 L 334.718 79.400 334.759 77.918 C 334.785 76.980,334.468 75.951,333.896 75.118 C 331.924 72.243,331.027 71.200,330.525 71.200 C 330.236 71.200,330.000 71.038,330.000 70.840 C 330.000 70.641,329.370 70.107,328.600 69.653 C 327.830 69.199,327.200 68.975,327.200 69.155 M334.994 132.800 C 334.994 162.170,335.042 174.185,335.100 159.500 C 335.158 144.815,335.158 120.785,335.100 106.100 C 335.042 91.415,334.994 103.430,334.994 132.800 M196.200 260.400 C 195.540 260.568,193.645 260.727,191.990 260.753 C 188.345 260.810,183.776 261.336,177.501 262.422 C 164.638 264.648,158.347 266.612,147.600 271.761 C 145.982 272.536,141.303 275.445,140.800 275.988 C 140.690 276.107,139.880 276.736,139.000 277.386 C 135.775 279.766,128.400 287.517,128.400 288.527 C 128.400 288.658,127.981 289.381,127.470 290.135 C 122.357 297.670,120.426 312.311,123.320 321.600 C 124.957 326.855,125.694 328.960,126.063 329.442 C 126.249 329.685,126.848 330.723,127.393 331.749 C 133.002 342.298,147.940 353.612,161.269 357.407 C 162.297 357.699,163.467 358.112,163.869 358.323 C 164.271 358.534,165.410 358.829,166.400 358.979 C 167.390 359.128,169.010 359.499,170.000 359.803 C 177.826 362.203,206.192 363.280,213.079 361.439 C 214.223 361.134,216.293 360.754,217.679 360.596 C 219.066 360.438,220.514 360.143,220.899 359.941 C 221.283 359.739,222.633 359.383,223.899 359.150 C 225.164 358.917,226.380 358.586,226.600 358.415 C 226.820 358.244,227.720 357.874,228.600 357.591 C 229.480 357.309,230.560 356.855,231.000 356.581 C 231.440 356.307,232.237 355.952,232.772 355.792 C 236.222 354.757,244.813 348.495,248.521 344.313 C 263.734 327.152,262.342 303.580,245.072 285.891 C 240.189 280.890,217.192 263.147,213.000 261.146 C 210.521 259.963,199.790 259.486,196.200 260.400 M213.090 262.100 C 213.515 262.485,213.987 262.800,214.138 262.800 C 214.289 262.800,215.473 263.565,216.769 264.500 C 218.066 265.435,219.521 266.470,220.005 266.800 C 220.488 267.130,222.767 268.885,225.069 270.700 C 227.371 272.515,229.377 274.003,229.527 274.006 C 229.677 274.009,230.610 274.724,231.600 275.595 C 233.983 277.692,233.728 277.479,238.610 281.436 C 242.208 284.351,244.783 286.805,248.400 290.761 C 251.808 294.490,256.239 303.364,257.207 308.400 C 257.660 310.759,257.665 323.347,257.213 325.400 C 255.679 332.379,252.884 338.061,248.394 343.329 C 246.331 345.750,239.997 351.200,239.247 351.200 C 239.023 351.200,238.696 351.436,238.520 351.723 C 238.344 352.011,237.615 352.483,236.900 352.772 C 236.185 353.061,235.600 353.441,235.600 353.617 C 235.600 353.793,235.072 354.052,234.428 354.194 C 233.783 354.336,233.056 354.691,232.813 354.984 C 232.570 355.277,231.738 355.635,230.965 355.780 C 230.191 355.925,229.458 356.304,229.336 356.622 C 229.214 356.940,228.632 357.200,228.042 357.200 C 227.452 357.200,226.263 357.560,225.400 358.000 C 224.537 358.440,223.245 358.800,222.529 358.800 C 221.814 358.800,220.390 359.084,219.367 359.432 C 218.343 359.779,216.042 360.230,214.253 360.433 C 212.464 360.636,209.110 361.026,206.800 361.301 C 201.471 361.934,191.997 361.931,185.800 361.293 C 183.160 361.022,179.380 360.629,177.400 360.421 C 175.420 360.213,172.916 359.763,171.836 359.421 C 170.756 359.079,169.220 358.800,168.421 358.800 C 167.622 358.800,166.263 358.440,165.400 358.000 C 164.537 357.560,163.171 357.200,162.364 357.200 C 161.558 357.200,160.678 356.935,160.409 356.611 C 160.140 356.286,159.263 355.904,158.460 355.760 C 157.657 355.616,156.730 355.265,156.400 354.980 C 156.070 354.696,155.312 354.341,154.716 354.192 C 154.120 354.043,153.433 353.681,153.189 353.386 C 152.945 353.092,152.219 352.736,151.577 352.595 C 150.935 352.454,150.305 352.170,150.177 351.963 C 150.050 351.757,149.373 351.321,148.673 350.995 C 147.973 350.669,146.932 350.086,146.360 349.701 C 144.123 348.194,142.980 347.394,142.510 347.005 C 142.241 346.782,141.539 346.240,140.950 345.800 C 139.252 344.530,131.829 337.118,130.975 335.839 C 130.549 335.201,129.903 334.363,129.539 333.979 C 129.176 333.594,128.764 332.917,128.624 332.476 C 128.484 332.034,128.106 331.454,127.785 331.187 C 127.463 330.920,127.200 330.388,127.200 330.005 C 127.200 329.622,126.840 328.850,126.400 328.291 C 125.960 327.731,125.600 326.895,125.600 326.433 C 125.600 325.970,125.265 324.828,124.855 323.896 C 122.359 318.216,122.353 302.778,124.845 297.356 C 125.260 296.452,125.600 295.327,125.600 294.856 C 125.600 294.385,125.758 294.000,125.951 294.000 C 126.145 294.000,126.543 293.415,126.837 292.700 C 127.131 291.985,127.918 290.617,128.586 289.659 C 129.254 288.702,129.980 287.635,130.200 287.289 C 130.686 286.525,138.377 278.800,138.652 278.800 C 138.832 278.800,141.945 276.467,142.400 275.991 C 142.667 275.711,144.801 274.322,145.800 273.778 C 146.240 273.538,146.960 273.137,147.400 272.887 C 148.104 272.486,150.168 271.553,154.200 269.813 C 154.860 269.528,156.260 268.913,157.311 268.447 C 158.362 267.981,159.532 267.599,159.911 267.598 C 160.290 267.596,161.125 267.321,161.767 266.987 C 162.875 266.409,165.776 265.648,170.200 264.776 C 171.300 264.559,173.460 264.114,175.000 263.787 C 176.540 263.460,179.578 263.011,181.750 262.789 C 183.923 262.567,185.903 262.254,186.150 262.093 C 187.711 261.077,211.969 261.084,213.090 262.100 " stroke="none" fill="#6198f4" fill-rule="evenodd"></path><path id="path4" d="M137.400 25.193 C 135.568 25.978,35.002 127.162,35.530 127.690 C 35.932 128.092,43.257 128.242,70.120 128.400 L 104.200 128.600 104.013 130.000 C 103.784 131.713,103.816 133.377,104.183 138.800 C 106.072 166.691,125.141 190.295,152.445 198.539 C 160.183 200.876,163.412 201.293,175.800 201.559 L 187.000 201.800 187.126 202.894 C 187.195 203.496,186.790 205.502,186.226 207.352 C 185.293 210.411,185.200 211.346,185.200 217.669 C 185.200 227.330,185.921 229.510,192.464 239.633 C 196.069 245.212,195.886 246.390,191.411 246.408 C 189.476 246.416,181.732 247.128,174.200 247.990 C 135.477 252.421,106.908 266.068,92.220 287.153 C 90.778 289.223,87.603 295.217,87.598 295.879 C 87.596 296.056,87.364 296.650,87.081 297.200 C 84.424 302.367,82.003 313.332,82.003 320.200 C 82.003 357.376,119.852 382.526,175.800 382.526 C 182.640 382.526,201.822 381.204,202.681 380.674 C 202.863 380.561,204.450 380.272,206.206 380.033 C 210.535 379.442,213.661 378.701,223.400 375.959 C 267.488 363.545,295.424 326.213,289.221 288.000 C 286.346 270.288,275.657 256.114,249.400 235.198 C 245.440 232.044,240.564 228.145,238.565 226.535 C 229.622 219.332,226.478 214.082,226.900 207.055 C 227.357 199.446,231.468 193.707,243.800 183.469 C 267.068 164.150,275.210 149.032,275.196 125.176 C 275.193 119.040,273.904 108.262,272.998 106.797 C 272.404 105.836,271.171 100.571,271.365 99.821 C 271.752 98.316,314.764 55.715,315.203 56.400 C 315.415 56.730,315.591 59.923,315.594 63.495 L 315.600 69.989 313.556 72.044 C 312.432 73.174,311.037 75.111,310.456 76.349 L 309.400 78.600 309.400 132.800 L 309.400 187.000 310.473 189.289 C 315.409 199.817,329.782 199.086,333.661 188.110 C 334.729 185.088,334.819 80.874,333.756 77.714 C 332.748 74.718,330.978 72.322,328.796 71.000 L 326.815 69.800 326.808 56.803 L 326.800 43.806 335.877 34.723 C 344.921 25.672,344.951 25.637,343.851 25.219 C 342.488 24.701,138.610 24.675,137.400 25.193 M343.348 25.482 C 343.503 25.637,339.708 29.688,334.915 34.485 L 326.200 43.207 326.200 56.618 C 326.200 68.109,326.286 70.082,326.800 70.398 C 328.705 71.567,329.865 72.606,331.673 74.764 C 331.983 75.134,332.634 76.611,333.118 78.047 L 334.000 80.656 334.000 132.800 L 334.000 184.944 333.128 187.572 C 332.648 189.017,331.838 190.709,331.328 191.331 C 330.817 191.953,330.400 192.628,330.400 192.831 C 330.400 193.034,330.164 193.200,329.875 193.200 C 329.587 193.200,328.972 193.553,328.509 193.985 C 323.115 199.010,313.248 195.383,310.597 187.400 C 309.333 183.594,309.349 81.417,310.615 78.000 C 311.485 75.650,313.480 72.400,314.053 72.400 C 315.690 72.400,316.000 70.978,316.000 63.476 C 316.000 52.284,318.644 50.786,292.839 76.600 C 269.151 100.296,269.637 99.716,270.780 102.895 C 273.450 110.323,274.159 115.009,274.153 125.200 C 274.149 133.432,273.331 141.073,272.200 143.456 C 271.870 144.152,271.600 144.987,271.600 145.313 C 271.600 151.633,259.498 168.957,248.800 177.950 C 247.590 178.968,246.510 179.901,246.400 180.025 C 246.290 180.149,244.220 181.841,241.800 183.786 C 226.642 195.963,221.688 209.122,228.802 218.311 C 231.003 221.153,236.677 226.480,241.200 229.949 C 246.223 233.802,246.818 234.263,247.714 235.000 C 247.981 235.220,248.905 235.927,249.768 236.572 C 257.142 242.085,279.200 263.646,279.200 265.341 C 279.200 265.475,279.801 266.533,280.536 267.692 C 282.006 270.013,285.600 277.360,285.600 278.046 C 285.600 278.284,285.857 279.046,286.172 279.740 C 287.122 281.833,288.311 287.523,288.830 292.451 C 292.894 331.086,263.625 365.028,215.800 377.143 C 210.756 378.421,208.853 378.816,205.000 379.387 C 203.020 379.681,200.500 380.131,199.400 380.387 C 192.443 382.009,159.724 381.918,151.916 380.255 C 150.312 379.913,147.830 379.458,146.400 379.243 C 142.530 378.660,134.062 376.472,130.000 375.005 C 113.650 369.098,101.903 361.582,94.724 352.435 C 93.415 350.766,92.127 349.130,91.864 348.800 C 82.520 337.099,80.503 315.149,87.288 299.000 C 89.493 293.753,91.128 290.202,91.703 289.415 C 96.226 283.224,97.888 281.221,100.944 278.271 C 110.211 269.327,124.281 261.087,136.800 257.271 C 144.019 255.071,147.234 254.180,152.800 252.834 C 154.670 252.382,158.270 251.657,160.800 251.222 C 163.330 250.788,167.110 250.138,169.200 249.778 C 171.290 249.417,174.710 248.971,176.800 248.785 C 199.050 246.805,198.917 246.870,194.073 240.292 C 191.325 236.562,188.102 230.549,187.039 227.171 C 185.775 223.155,185.489 211.996,186.584 209.377 C 187.551 207.063,188.478 202.875,188.210 202.032 C 187.810 200.772,186.657 200.617,178.600 200.743 C 149.210 201.201,126.668 189.379,113.628 166.668 C 112.513 164.726,111.600 163.066,111.600 162.980 C 111.600 162.894,111.150 161.840,110.600 160.637 C 110.050 159.435,109.600 158.332,109.600 158.186 C 109.600 158.040,109.349 157.354,109.042 156.660 C 108.213 154.786,106.396 148.715,106.398 147.826 C 106.399 147.401,106.127 146.051,105.794 144.826 C 105.437 143.513,105.068 139.653,104.894 135.417 L 104.600 128.234 103.600 127.957 C 103.050 127.805,87.570 127.662,69.200 127.639 L 35.800 127.599 87.003 76.400 L 138.207 25.200 240.637 25.200 C 296.973 25.200,343.193 25.327,343.348 25.482 M176.000 65.370 C 166.382 67.389,160.020 70.779,153.931 77.127 C 150.964 80.221,146.400 86.773,146.400 87.939 C 146.400 88.181,146.058 89.148,145.641 90.089 C 144.477 92.712,143.631 95.972,143.178 99.584 C 142.952 101.389,142.594 103.776,142.383 104.888 C 141.878 107.555,141.893 115.727,142.409 118.445 C 142.634 119.630,143.002 122.310,143.227 124.400 C 143.452 126.490,143.881 129.010,144.182 130.000 C 144.482 130.990,144.833 132.673,144.962 133.740 C 145.091 134.808,145.463 136.518,145.790 137.540 C 146.117 138.563,146.844 140.930,147.406 142.800 C 147.968 144.670,148.669 146.740,148.965 147.400 C 149.261 148.060,149.997 149.860,150.600 151.400 C 156.866 167.387,169.617 181.588,182.200 186.595 C 201.464 194.259,226.131 184.159,233.473 165.600 C 236.967 156.769,237.840 140.161,235.418 128.600 C 235.096 127.060,234.652 124.900,234.431 123.800 C 233.440 118.854,230.555 109.087,229.233 106.200 C 229.031 105.760,228.006 103.420,226.955 101.000 C 225.150 96.845,224.276 95.265,220.874 90.000 C 208.789 71.296,191.908 62.030,176.000 65.370 M188.798 66.438 C 201.517 69.032,211.911 77.278,221.119 92.079 C 235.219 114.744,239.967 150.581,231.178 168.000 C 227.742 174.809,222.856 179.377,214.545 183.550 C 194.122 193.803,173.118 186.671,158.735 164.600 C 155.442 159.545,152.198 153.441,151.403 150.800 C 151.238 150.250,150.964 149.620,150.796 149.400 C 149.747 148.030,146.809 137.580,145.004 128.800 C 141.309 110.832,143.240 93.831,150.192 83.130 C 158.308 70.635,174.677 63.558,188.798 66.438 M196.724 258.610 C 196.608 258.725,193.656 258.992,190.162 259.202 C 186.669 259.413,182.909 259.769,181.806 259.993 C 180.703 260.218,178.270 260.667,176.400 260.991 C 169.503 262.185,163.391 263.727,159.000 265.379 C 157.460 265.958,155.480 266.671,154.600 266.964 C 146.981 269.495,139.289 274.304,133.384 280.227 C 130.296 283.325,128.827 285.236,125.707 290.214 C 119.800 299.639,119.039 316.925,124.052 327.826 C 124.463 328.721,124.800 329.589,124.800 329.757 C 124.800 331.173,131.309 340.445,134.260 343.232 C 140.149 348.792,152.969 356.800,155.984 356.800 C 156.335 356.800,156.986 357.055,157.431 357.367 C 157.877 357.679,158.909 358.059,159.725 358.212 C 160.541 358.365,161.300 358.638,161.411 358.818 C 161.523 358.999,162.646 359.348,163.907 359.596 C 165.168 359.843,166.696 360.237,167.303 360.472 C 167.909 360.707,169.619 361.134,171.103 361.422 C 172.586 361.709,174.700 362.131,175.800 362.360 C 184.874 364.248,213.406 364.030,217.115 362.045 C 217.526 361.826,218.838 361.522,220.031 361.371 C 221.224 361.220,222.740 360.878,223.400 360.611 C 224.060 360.344,225.320 359.991,226.200 359.826 C 227.080 359.661,228.250 359.287,228.800 358.994 C 229.350 358.701,230.655 358.088,231.700 357.631 C 236.252 355.640,237.591 354.937,240.800 352.850 C 248.279 347.985,257.134 336.830,258.251 330.865 C 258.402 330.059,258.767 328.821,259.062 328.114 C 260.653 324.302,260.637 308.760,259.038 305.556 C 258.723 304.924,258.345 303.860,258.198 303.189 C 257.903 301.847,255.044 296.169,254.159 295.169 C 253.851 294.821,253.600 294.399,253.600 294.231 C 253.600 293.962,251.663 291.295,249.361 288.393 C 245.880 284.004,239.877 278.695,230.200 271.449 C 211.532 257.469,213.431 258.400,203.594 258.400 C 199.931 258.400,196.839 258.494,196.724 258.610 M212.860 260.285 C 218.407 262.774,243.027 282.319,247.871 288.078 C 256.446 298.276,258.819 304.111,259.088 315.663 C 259.558 335.865,250.335 348.743,228.654 358.159 C 227.180 358.800,224.314 359.600,220.400 360.464 C 219.410 360.682,217.387 361.129,215.904 361.456 C 204.819 363.903,182.483 363.357,170.200 360.340 C 169.320 360.123,167.790 359.766,166.800 359.545 C 152.403 356.336,137.161 346.788,129.531 336.200 C 121.106 324.509,119.113 307.494,124.622 294.289 C 127.664 286.998,134.776 279.143,143.812 273.093 C 153.289 266.747,173.998 261.179,192.567 259.983 C 195.849 259.772,198.639 259.490,198.767 259.358 C 199.406 258.696,211.022 259.460,212.860 260.285 " stroke="none" fill="#a4c4fc" fill-rule="evenodd"></path></g></svg>